<svg width="16" height="16" viewBox="0 0 16 16" fill="none" xmlns="http://www.w3.org/2000/svg">
<path d="M13.779 10.8316L13.779 10.8316L10.8316 13.7789C9.3509 15.2597 8.61051 16 7.69056 16C6.77054 16 6.02233 15.2518 4.52584 13.7553L2.09169 11.3212L2.09152 11.321C0.73634 9.96579 0.058744 9.28817 0.00464546 8.45303C-0.00154849 8.35742 -0.00154849 8.26152 0.00464546 8.1659C0.0587461 7.33074 0.736391 6.6531 2.09167 5.29783L2.09169 5.2978L5.16842 2.22105C6.6491 0.740355 7.38949 0 8.30945 0C9.22943 0 9.96974 0.740303 11.4504 2.2209L11.4505 2.22106L13.779 4.5495C15.2597 6.0302 16 6.77053 16 7.69054C16 8.61056 15.2597 9.35089 13.779 10.8316Z" fill="white"/>
<path fill-rule="evenodd" clip-rule="evenodd" d="M12.9414 10.4455C14.1963 9.19055 14.8238 8.56312 14.8238 7.7834C14.8238 7.00368 14.1963 6.37625 12.9414 5.12135L10.9681 3.14798C9.71313 1.89308 9.0857 1.26562 8.30598 1.26562C7.52631 1.26562 6.89883 1.89308 5.64394 3.14798L3.0364 5.75554C1.88777 6.90415 1.31346 7.47846 1.26761 8.18627C1.26236 8.26731 1.26236 8.34858 1.26761 8.42961C1.31346 9.13742 1.88777 9.71173 3.0364 10.8604C3.32355 11.1475 3.46713 11.2911 3.64408 11.3026C3.66434 11.3039 3.68466 11.3039 3.70492 11.3026C3.88187 11.2911 4.02545 11.1475 4.31261 10.8604L8.02989 7.14312H6.30019C6.15878 7.14307 6.02311 7.08688 5.92311 6.98688C5.82311 6.88688 5.76692 6.75126 5.76687 6.6098C5.76692 6.46839 5.82311 6.33272 5.92311 6.23272C6.02311 6.13272 6.15878 6.07653 6.30019 6.07648H9.31751C9.45892 6.07653 9.59455 6.13272 9.69459 6.23272C9.79459 6.33272 9.85078 6.46839 9.85078 6.6098V9.62712C9.84838 9.76693 9.79111 9.9002 9.69134 9.99827C9.59163 10.0963 9.45737 10.1512 9.31751 10.1512C9.17765 10.1512 9.04339 10.0963 8.94363 9.99827C8.84386 9.9002 8.78664 9.76693 8.78419 9.62712V7.89742L5.09434 11.5873C4.78061 11.901 4.62375 12.0579 4.62375 12.2528C4.62375 12.4477 4.78228 12.6063 5.09935 12.9233C6.36763 14.1916 7.00175 14.8257 7.78146 14.8257C8.56113 14.8257 9.18862 14.1983 10.4435 12.9434L12.9414 10.4455Z" fill="#573321"/>
</svg>
