<svg width="221" height="33" viewBox="0 0 221 33" fill="none" xmlns="http://www.w3.org/2000/svg">
<path fill-rule="evenodd" clip-rule="evenodd" d="M25.3034 20.9316C27.9701 18.2649 29.3034 16.9316 29.3034 15.2747C29.3034 13.6178 27.9701 12.2845 25.3034 9.61785L21.11 5.42444C18.4433 2.75777 17.11 1.42443 15.4531 1.42443C13.7963 1.42443 12.4629 2.75777 9.79627 5.42443L4.25523 10.9655C1.81441 13.4063 0.593994 14.6267 0.496561 16.1308C0.485406 16.303 0.485406 16.4757 0.496561 16.6479C0.593994 18.152 1.81441 19.3724 4.25523 21.8133C4.86544 22.4235 5.17054 22.7286 5.54656 22.7529C5.58961 22.7557 5.6328 22.7557 5.67585 22.7529C6.05187 22.7286 6.35697 22.4235 6.96718 21.8133L14.8664 13.9141L11.1908 13.9141C10.8903 13.914 10.602 13.7946 10.3895 13.5821C10.177 13.3696 10.0576 13.0814 10.0575 12.7808C10.0576 12.4803 10.177 12.192 10.3895 11.9795C10.602 11.767 10.8903 11.6476 11.1908 11.6475L17.6026 11.6475C17.9031 11.6476 18.1913 11.767 18.4039 11.9795C18.6164 12.192 18.7358 12.4803 18.7358 12.7808L18.7358 19.1926C18.7307 19.4897 18.609 19.7729 18.397 19.9813C18.1851 20.1896 17.8998 20.3063 17.6026 20.3063C17.3054 20.3063 17.0201 20.1896 16.8081 19.9813C16.5961 19.7729 16.4745 19.4897 16.4693 19.1926V15.517L8.62836 23.358C7.96169 24.0246 7.62836 24.358 7.62836 24.7722C7.62836 25.1864 7.96524 25.5233 8.63901 26.197C11.3341 28.8921 12.6816 30.2396 14.3385 30.2396C15.9953 30.2396 17.3287 28.9063 19.9953 26.2396L25.3034 20.9316Z" fill="#F4EFE8"/>
<path d="M39.4884 24.3119C38.7904 24.3119 38.1703 24.2116 37.6282 24.0111C37.0861 23.8106 36.6257 23.5284 36.247 23.1646C35.8682 22.8007 35.5712 22.3737 35.3558 21.8836C35.1405 21.3935 35.0105 20.8588 34.966 20.2796L34.9548 20.1236H36.9599L36.971 20.235C37.0156 20.636 37.1344 21.0073 37.3274 21.3489C37.5205 21.6831 37.7953 21.9541 38.1517 22.1621C38.5082 22.3626 38.95 22.4628 39.4773 22.4628C40.3684 22.4628 41.0479 22.2066 41.5157 21.6942C41.9835 21.1744 42.2175 20.4244 42.2175 19.4442V7.92644H44.2225V19.4664C44.2225 20.4764 44.0331 21.3452 43.6544 22.073C43.2831 22.7933 42.7447 23.3465 42.0392 23.7327C41.3338 24.1188 40.4835 24.3119 39.4884 24.3119ZM52.2648 24.2228C51.1658 24.2228 50.2078 23.9777 49.391 23.4876C48.5815 22.9901 47.9503 22.2846 47.4973 21.3712C47.0518 20.4578 46.829 19.381 46.829 18.1409V18.1186C46.829 16.8636 47.0518 15.7831 47.4973 14.8772C47.9503 13.9712 48.5815 13.2732 49.391 12.783C50.2078 12.2929 51.1621 12.0479 52.2537 12.0479C53.3527 12.0479 54.307 12.2929 55.1164 12.783C55.9258 13.2732 56.5533 13.9712 56.9989 14.8772C57.4519 15.7831 57.6784 16.8636 57.6784 18.1186V18.1409C57.6784 19.3885 57.4519 20.4689 56.9989 21.3823C56.5533 22.2883 55.9258 22.9901 55.1164 23.4876C54.307 23.9777 53.3564 24.2228 52.2648 24.2228ZM52.2648 22.5074C52.9777 22.5074 53.5867 22.3366 54.0916 21.995C54.604 21.646 54.9976 21.1447 55.2724 20.4912C55.5545 19.8377 55.6956 19.0543 55.6956 18.1409V18.1186C55.6956 17.1904 55.5545 16.4032 55.2724 15.7571C54.9976 15.1111 54.604 14.6173 54.0916 14.2757C53.5792 13.9341 52.9666 13.7633 52.2537 13.7633C51.5556 13.7633 50.9467 13.9341 50.4269 14.2757C49.9145 14.6173 49.5172 15.1111 49.235 15.7571C48.9528 16.4032 48.8117 17.1904 48.8117 18.1186V18.1409C48.8117 19.0543 48.9528 19.8377 49.235 20.4912C49.5172 21.1447 49.9145 21.646 50.4269 21.995C50.9467 22.3366 51.5594 22.5074 52.2648 22.5074ZM65.8544 24.2228C65.3049 24.2228 64.7925 24.1337 64.3172 23.9554C63.8494 23.7772 63.4335 23.5284 63.0696 23.2091C62.7058 22.8898 62.4013 22.5037 62.1562 22.0507H62.0671V24H60.129V7.68138H62.0671V14.1866H62.1562C62.3939 13.7484 62.6983 13.3697 63.0696 13.0504C63.4409 12.7311 63.8642 12.486 64.3395 12.3152C64.8222 12.137 65.3346 12.0479 65.8767 12.0479C66.8643 12.0479 67.7257 12.3003 68.4609 12.8053C69.2035 13.3029 69.7827 14.0046 70.1986 14.9106C70.6145 15.8166 70.8224 16.8859 70.8224 18.1186V18.1409C70.8224 19.3662 70.6145 20.4355 70.1986 21.3489C69.7902 22.2623 69.2147 22.9715 68.4721 23.4765C67.7295 23.974 66.8569 24.2228 65.8544 24.2228ZM65.4534 22.5074C66.1514 22.5074 66.7529 22.3329 67.2579 21.9838C67.7703 21.6274 68.1602 21.1224 68.4275 20.4689C68.7023 19.8155 68.8396 19.0394 68.8396 18.1409V18.1186C68.8396 17.2201 68.7023 16.4478 68.4275 15.8017C68.1602 15.1482 67.7703 14.647 67.2579 14.2979C66.7529 13.9415 66.1514 13.7633 65.4534 13.7633C64.7702 13.7633 64.1724 13.9452 63.66 14.3091C63.155 14.6655 62.7578 15.1705 62.4681 15.824C62.186 16.47 62.0449 17.2349 62.0449 18.1186V18.1409C62.0449 19.0172 62.186 19.7857 62.4681 20.4467C62.7503 21.1002 63.1476 21.6088 63.66 21.9727C64.1724 22.3292 64.7702 22.5074 65.4534 22.5074Z" fill="#F4EFE8"/>
<path d="M74.708 24V7.92644H79.4086L83.3852 18.5642H83.5078L87.4733 7.92644H92.1739V24H88.576V13.8969H86.649L90.5365 8.372L84.6105 24H82.2713L76.3454 8.372L80.244 13.8969H78.3059V24H74.708ZM94.1232 24L99.5368 7.92644H103.235V11.4464H101.976L98.4229 24H94.1232ZM97.2867 20.4801L98.2112 17.5282H105.841L106.755 20.4801H97.2867ZM105.663 24L102.11 11.4464V7.92644H104.549L109.963 24H105.663ZM111.054 24L116.891 14.3871L115.956 17.751V15.8574L111.054 7.92644H115.844L118.785 13.3623H120.679L118.039 14.9774L121.826 7.92644H126.371L121.258 15.902V17.7956L120.3 14.4427L126.326 24H121.737L118.618 18.787H116.713L119.431 17.2275L115.41 24H111.054ZM128.487 24V7.92644H132.575V24H128.487ZM135.505 24V7.92644H140.205L144.182 18.5642H144.304L148.27 7.92644H152.971V24H149.373V13.8969H147.446L151.333 8.372L145.407 24H143.068L137.142 8.372L141.041 13.8969H139.102V24H135.505ZM154.92 24L160.333 7.92644H164.032V11.4464H162.773L159.219 24H154.92ZM158.083 20.4801L159.008 17.5282H166.638L167.551 20.4801H158.083ZM166.46 24L162.906 11.4464V7.92644H165.346L170.759 24H166.46ZM172.709 24V7.92644H176.797V20.714H183.502V24H172.709ZM185.786 24V7.92644H189.874V24H185.786ZM198.93 24.3342C197.593 24.3342 196.435 24.1448 195.455 23.7661C194.474 23.3799 193.706 22.8267 193.149 22.1064C192.592 21.3861 192.284 20.5209 192.224 19.511L192.213 19.3105H196.056L196.067 19.4107C196.127 19.7523 196.286 20.0531 196.546 20.313C196.814 20.5655 197.155 20.766 197.571 20.9145C197.994 21.0556 198.47 21.1261 198.997 21.1261C199.539 21.1261 200.003 21.0556 200.389 20.9145C200.783 20.766 201.087 20.5655 201.303 20.313C201.525 20.0531 201.637 19.756 201.637 19.4219V19.4107C201.637 18.9578 201.44 18.6087 201.046 18.3637C200.653 18.1112 199.984 17.8958 199.041 17.7176L197.382 17.3946C195.755 17.0827 194.537 16.5369 193.728 15.7571C192.919 14.97 192.514 13.9563 192.514 12.7162V12.7051C192.521 11.6729 192.796 10.7743 193.338 10.0094C193.888 9.23713 194.641 8.64305 195.599 8.22719C196.565 7.80391 197.664 7.59227 198.897 7.59227C200.241 7.59227 201.381 7.79277 202.316 8.19378C203.259 8.59478 203.987 9.15916 204.499 9.8869C205.012 10.6146 205.298 11.4612 205.357 12.4266L205.368 12.616H201.57L201.559 12.4934C201.514 12.1444 201.373 11.8437 201.135 11.5912C200.905 11.3387 200.601 11.1456 200.222 11.0119C199.843 10.8708 199.409 10.8003 198.919 10.8003C198.429 10.8003 198.009 10.8708 197.66 11.0119C197.311 11.1456 197.044 11.335 196.858 11.58C196.672 11.8177 196.58 12.0924 196.58 12.4043V12.4155C196.58 12.8536 196.776 13.2026 197.17 13.4625C197.564 13.715 198.191 13.9266 199.052 14.0974L200.712 14.4205C201.848 14.6358 202.784 14.9403 203.519 15.3339C204.254 15.7274 204.8 16.2287 205.157 16.8376C205.513 17.4391 205.691 18.1706 205.691 19.032V19.0432C205.691 20.1199 205.424 21.0556 204.889 21.8502C204.355 22.6448 203.582 23.2574 202.572 23.6881C201.562 24.1188 200.348 24.3342 198.93 24.3342ZM211.461 24V11.2124H206.961V7.92644H220.049V11.2124H215.549V24H211.461Z" fill="#F4EFE8"/>
</svg>
